<svg data-v-423bf9ae="" xmlns="http://www.w3.org/2000/svg" viewBox="0 0 263.63265863789604 163" class="iconAbove"><!----><!----><!----><g data-v-423bf9ae="" id="d91b09e2-f3b3-4ae9-a9bc-306b92236193" fill="#163530" transform="matrix(6.122449456230433,0,0,6.122449456230433,3.122451947163171,91.18366999499045)"><path d="M3.33 1.96L3.33 1.96L3.33 1.96Q4.96 1.96 5.51 3.01L5.51 3.01L5.51 3.01Q5.89 3.80 5.89 4.56L5.89 4.56L5.88 4.56L5.88 4.56Q4.76 4.66 4.35 4.66L4.35 4.66L4.35 4.66Q4.35 4.12 4.02 3.75L4.02 3.75L4.02 3.75Q3.71 3.57 3.44 3.57L3.44 3.57L3.17 3.57L3.17 3.57Q2.47 3.57 2.32 4.11L2.32 4.11L2.32 4.11Q2.28 4.27 2.28 4.35L2.28 4.35L2.28 4.50L2.28 4.50Q2.28 5.26 3.09 5.61L3.09 5.61L3.09 5.61Q3.16 5.67 4.21 6.12L4.21 6.12L4.21 6.12Q4.77 6.38 5.25 6.76L5.25 6.76L5.25 6.77L3.53 6.77L3.53 6.97L5.80 6.97L5.80 7.24L6.08 7.24L6.08 10.21L5.52 10.21L5.52 11.73L1.18 11.73L1.18 10.21L0.15 10.21L0.15 9.18L0.73 9.18L0.73 8.83L0.15 8.83L0.15 8.59L2.14 8.59L2.14 10.21L4.18 10.21L4.18 7.77L2.65 7.77L2.65 6.97L0.76 6.97L0.76 6.77L1.67 6.77L1.67 6.76L1.67 6.76Q0.47 5.96 0.47 4.50L0.47 4.50L0.47 4.37L0.47 4.37Q0.47 3.14 1.22 2.51L1.22 2.51L1.22 2.51Q1.91 1.96 3.33 1.96ZM5.80 6.97L5.80 6.77L6.49 6.77L6.49 6.97L5.80 6.97ZM-0.51 9.18L-0.51 8.83L0.15 8.83L0.15 9.18L-0.51 9.18ZM9.92 1.96L9.92 1.96L9.92 1.96Q11.55 1.96 12.10 3.01L12.10 3.01L12.10 3.01Q12.48 3.80 12.48 4.56L12.48 4.56L12.47 4.56L12.47 4.56Q11.35 4.66 10.94 4.66L10.94 4.66L10.94 4.66Q10.94 4.12 10.61 3.75L10.61 3.75L10.61 3.75Q10.29 3.57 10.03 3.57L10.03 3.57L9.75 3.57L9.75 3.57Q9.06 3.57 8.91 4.11L8.91 4.11L8.91 4.11Q8.87 4.27 8.87 4.35L8.87 4.35L8.87 4.50L8.87 4.50Q8.87 5.26 9.68 5.61L9.68 5.61L9.68 5.61Q9.75 5.67 10.80 6.12L10.80 6.12L10.80 6.12Q11.36 6.38 11.84 6.76L11.84 6.76L11.84 6.77L10.12 6.77L10.12 6.97L12.39 6.97L12.39 7.24L12.67 7.24L12.67 10.21L12.11 10.21L12.11 11.73L7.77 11.73L7.77 10.21L6.74 10.21L6.74 9.18L7.32 9.18L7.32 8.83L6.74 8.83L6.74 8.59L8.73 8.59L8.73 10.21L10.77 10.21L10.77 7.77L9.24 7.77L9.24 6.97L7.35 6.97L7.35 6.77L8.26 6.77L8.26 6.76L8.26 6.76Q7.06 5.96 7.06 4.50L7.06 4.50L7.06 4.37L7.06 4.37Q7.06 3.14 7.81 2.51L7.81 2.51L7.81 2.51Q8.50 1.96 9.92 1.96ZM12.39 6.97L12.39 6.77L13.08 6.77L13.08 6.97L12.39 6.97ZM6.08 9.18L6.08 8.83L6.74 8.83L6.74 9.18L6.08 9.18ZM13.83 6.80L13.83 2.00L18.62 2.00L18.62 3.60L18.62 3.60Q18.62 3.63 18.59 3.63L18.59 3.63L15.74 3.63L15.74 5.74L18.29 5.74L18.29 5.76L18.29 5.76Q18.29 5.84 18.27 6.79L18.27 6.79L18.27 6.79Q18.25 6.79 18.25 6.80L18.25 6.80L18.36 6.80L18.36 7.29L16.15 7.29L16.15 9.29L15.56 9.29L15.56 9.49L16.15 9.49L16.15 10.10L18.66 10.10L18.66 10.32L18.46 10.32L18.46 11.52L15.46 11.52L15.46 11.73L14.04 11.73L14.04 8.24L13.83 8.24L13.83 7.01L12.27 7.01L12.27 6.80L13.83 6.80ZM14.64 6.80L13.84 6.80L13.84 7.01L14.64 7.01L14.64 6.80ZM19.67 1.96L19.67 1.96L21.67 1.96L21.67 1.96Q21.71 1.96 22.31 3.53L22.31 3.53L22.31 3.53Q22.36 3.59 23.57 6.62L23.57 6.62L24.08 6.62L24.08 1.96L25.83 1.96L25.83 7.51L26.02 7.51L26.02 9.67L25.32 9.67L25.32 10.08L26.02 10.08L26.02 11.37L23.41 11.37L23.41 9.73L22.94 9.73L22.94 9.73Q22.00 7.44 21.67 6.56L21.67 6.56L21.67 4.92L21.42 4.92L21.42 9.93L21.03 9.93L21.03 11.66L19.39 11.66L19.39 7.94L19.69 7.94L19.69 7.92L19.69 7.92Q19.67 3.09 19.67 1.96ZM23.54 6.62L22.61 6.62L22.61 6.98L23.70 6.98L23.70 6.98Q23.57 6.62 23.54 6.62L23.54 6.62ZM24.89 6.62L24.10 6.62L24.10 6.98L23.71 6.98L23.71 6.98Q24.06 7.85 24.13 8.11L24.13 8.11L24.14 8.11L24.14 8.07L24.14 8.07Q24.10 7.18 24.10 6.98L24.10 6.98L24.89 6.98L24.89 6.62ZM23.41 11.73L23.41 11.55L26.57 11.55L26.57 11.73L23.41 11.73ZM27.28 1.93L27.28 1.93L29.12 1.93L29.12 1.93Q29.15 1.94 29.15 1.97L29.15 1.97L29.15 6.73L29.15 6.73Q29.15 6.76 29.12 6.76L29.12 6.76L28.90 6.76L28.90 11.70L28.90 11.70Q28.90 11.73 28.87 11.73L28.87 11.73L27.28 11.73L27.28 11.73Q27.24 11.73 27.24 11.70L27.24 11.70L27.24 6.64L26.75 6.64L26.75 6.64Q26.71 6.64 26.71 6.61L26.71 6.61L26.71 6.40L26.71 6.40Q26.72 6.36 26.75 6.36L26.75 6.36L27.24 6.36L27.24 1.97L27.24 1.97Q27.25 1.93 27.28 1.93ZM28.20 6.36L27.25 6.36L27.25 6.64L28.20 6.64L28.20 6.36ZM33.26 1.93L33.26 1.93L33.26 1.93Q35.31 1.93 35.84 3.22L35.84 3.22L35.84 3.22Q36.00 3.53 36.00 3.63L36.00 3.63L35.14 3.63L35.14 3.89L36.07 3.89L36.07 3.88L36.07 3.88Q36.07 3.81 36.00 3.63L36.00 3.63L37.58 3.63L37.58 3.89L36.08 3.89L36.08 3.91L36.08 3.91Q36.20 4.46 36.24 5.09L36.24 5.09L36.24 5.09Q36.24 5.13 34.45 5.22L34.45 5.22L34.45 5.21L34.45 5.21Q34.45 3.58 33.33 3.58L33.33 3.58L33.13 3.58L33.13 3.58Q32.29 3.58 32.11 4.29L32.11 4.29L32.11 4.29Q31.96 4.89 31.96 5.87L31.96 5.87L31.96 7.21L31.94 7.40L31.32 7.40L31.32 7.71L31.94 7.71L31.94 10.08L34.58 10.08L34.58 7.62L36.09 7.62L36.09 10.08L35.25 10.08L35.25 11.60L33.50 11.60L33.50 11.73L32.13 11.73L32.13 11.60L30.74 11.60L30.74 10.84L31.66 10.84L31.66 10.51L30.28 10.51L30.28 9.39L29.69 9.39L29.69 8.00L30.00 8.00L30.00 8.00Q29.98 7.16 29.98 6.66L29.98 6.66L29.98 6.66Q29.98 4.42 30.19 3.84L30.19 3.84L30.19 3.84Q30.41 3.17 30.86 2.69L30.86 2.69L30.86 2.69Q31.66 1.93 33.26 1.93ZM36.61 10.60L36.61 2.00L38.52 2.00L38.52 3.83L38.52 3.83Q38.52 4.74 38.49 5.80L38.49 5.80L38.49 5.82L38.51 5.82L38.51 5.82Q38.74 5.37 39.80 3.51L39.80 3.51L39.80 3.51Q40.34 2.57 40.34 2.09L40.34 2.09L40.34 2.00L42.30 2.00L42.30 2.04L42.30 2.04Q42.30 2.98 41.54 4.09L41.54 4.09L40.37 5.78L41.51 8.21L42.55 8.21L42.55 8.50L41.38 8.50L41.38 8.52L41.38 8.52Q41.67 9.13 41.75 9.24L41.75 9.24L41.96 9.24L41.96 10.12L42.25 10.12L42.25 11.72L42.25 11.72Q41.75 11.73 41.51 11.73L41.51 11.73L41.04 11.73L41.04 11.73Q40.79 11.73 40.35 11.72L40.35 11.72L40.35 10.65L39.93 10.65L39.93 9.24L39.68 9.24L39.42 8.50L41.37 8.50L41.37 8.21L39.59 8.21L39.59 8.21Q39.59 8.18 39.27 7.23L39.27 7.23L39.26 7.23L39.26 7.23Q39.09 7.54 38.60 8.21L38.60 8.21L39.42 8.21L39.42 8.50L38.52 8.50L38.52 8.98L38.40 8.98L38.40 11.20L38.52 11.20L38.52 11.70L38.52 11.70Q38.52 11.73 38.49 11.73L38.49 11.73L36.64 11.73L36.64 11.73Q36.61 11.73 36.61 11.70L36.61 11.70L36.61 10.93L37.47 10.93L37.47 10.60L36.61 10.60ZM38.59 8.21L37.39 8.21L37.39 8.50L38.51 8.50L38.51 8.50Q38.51 8.45 38.59 8.21L38.59 8.21Z"></path></g><defs data-v-423bf9ae=""><linearGradient data-v-423bf9ae="" gradientTransform="rotate(25)" id="3967df04-07b0-44df-9e6c-50e2a2c028a2" x1="0%" y1="0%" x2="100%" y2="0%"><stop data-v-423bf9ae="" offset="0%" style="stop-color: rgb(2, 24, 2); stop-opacity: 1;"></stop><stop data-v-423bf9ae="" offset="100%" style="stop-color: rgb(96, 219, 204); stop-opacity: 1;"></stop></linearGradient></defs><g data-v-423bf9ae="" id="29ab096b-7672-48a8-bb61-03ce390c2e06" transform="matrix(2.512773169889017,0,0,2.512773169889017,68.6909090491869,-36.06076997079566)" stroke="none" fill="url(#3967df04-07b0-44df-9e6c-50e2a2c028a2)"><path d="M50.39 50.4s-2.547-8.199-8.847-14.646c-1.771-1.917-6.527-3.745-9.808-.982-5.664 4.766-5.664 15.628-5.664 15.628H50.39zM22.859 50.385a5.4 5.4 0 0 0-5.4-5.362c-2.401 0-4.411 1.577-5.113 3.743l-9.494.002a1.47 1.47 0 0 1-.925-.355c-.36-.314-.314-.711-.277-1.029.007-.065.014-.125.008-.125l-.001.001c1.571-5.367 5.161-13.728 5.538-14.445.122-.209.434-.442.74-.555l.286-.086.035.179c1.685 8.027 3.381 10.805 3.455 10.921l.188.302 2.267-.471-5.27-25.438-2.299.477-.027.386c-.01.146-.229 3.638 1.225 11.43l-.003.002.082.423-.359.14c-.564.231-1.045.586-1.515 1.116-.488.545-3.989 8.63-5.921 15.229a1.253 1.253 0 0 0-.036.204c-.138.921.05 1.703.555 2.322.793.968 2.081.996 2.224.996l11.702-.003v-.005h8.335zM30.14 17.512l.772 3.93a3.228 3.228 0 0 1 2.486 3.139 3.233 3.233 0 0 1-6.467 0 3.23 3.23 0 0 1 1.38-2.644l-.838-4.272c-3.393.796-5.93 3.84-5.93 7.485 0 4.238 3.448 7.683 7.684 7.683a7.688 7.688 0 1 0 .913-15.321z"></path><path d="M29.227 17.453c.31 0 .613.024.913.059l-.568-2.929-2.598.508.498 2.572a7.699 7.699 0 0 1 1.755-.21z"></path></g><!----></svg>