<svg width="18" height="18" viewBox="0 0 18 18" fill="none" xmlns="http://www.w3.org/2000/svg">
<path fill-rule="evenodd" clip-rule="evenodd" d="M2.81258 8.79419C2.81258 8.37998 3.14836 8.04419 3.56258 8.04419H14.8126C15.2268 8.04419 15.5626 8.37998 15.5626 8.79419C15.5626 9.2084 15.2268 9.54419 14.8126 9.54419H3.56258C3.14836 9.54419 2.81258 9.2084 2.81258 8.79419Z" fill="white"/>
<path fill-rule="evenodd" clip-rule="evenodd" d="M9.61465 3.92003C9.81118 3.55541 10.2661 3.41915 10.6307 3.61568L10.2976 4.23361C10.6307 3.61568 10.6306 3.6156 10.6307 3.61568L10.6358 3.61846L10.6475 3.62479L10.6894 3.64787C10.7253 3.66779 10.7769 3.69669 10.842 3.73389C10.9721 3.80824 11.1563 3.91598 11.3768 4.05157C11.8162 4.32187 12.4063 4.70702 13.0001 5.16266C13.5896 5.6149 14.2071 6.15505 14.6841 6.73884C15.1466 7.30483 15.5623 8.01488 15.5623 8.79313C15.5623 9.57159 15.1468 10.2819 14.6843 10.8483C14.2072 11.4323 13.5897 11.9728 13.0003 12.4252C12.4064 12.881 11.8163 13.2663 11.3769 13.5367C11.1564 13.6724 10.9722 13.7802 10.8421 13.8545C10.777 13.8917 10.7254 13.9207 10.6895 13.9406L10.6476 13.9637L10.6359 13.97L10.6325 13.9718L10.6315 13.9724C10.6313 13.9725 10.6308 13.9728 10.2748 13.3126L10.6315 13.9724C10.2669 14.169 9.81127 14.0332 9.61469 13.6686C9.41814 13.304 9.55427 12.8492 9.91873 12.6526C9.91879 12.6525 9.91867 12.6526 9.91873 12.6526L9.92035 12.6517L9.92817 12.6474L9.96215 12.6287C9.99268 12.6118 10.0385 12.5861 10.0975 12.5524C10.2156 12.4849 10.3858 12.3853 10.5908 12.2592C11.0021 12.0061 11.5464 11.6502 12.0869 11.2353C12.6319 10.817 13.1487 10.3571 13.5225 9.89944C13.9107 9.42403 14.0623 9.05117 14.0623 8.79313C14.0623 8.53563 13.9109 8.16315 13.5226 7.68796C13.1488 7.23055 12.632 6.77087 12.087 6.35272C11.5465 5.93799 11.0022 5.58223 10.5909 5.32922C10.3859 5.20316 10.2157 5.10364 10.0976 5.03615C10.0386 5.00242 9.99277 4.97676 9.96224 4.95984L9.92826 4.94113L9.92043 4.93686L9.91899 4.93608C9.55451 4.7395 9.41815 4.28459 9.61465 3.92003ZM9.91873 12.6526C9.91879 12.6525 9.91867 12.6526 9.91873 12.6526Z" fill="white"/>
</svg>
