<svg width="18" height="18" viewBox="0 0 18 18" fill="none" xmlns="http://www.w3.org/2000/svg">
<path fill-rule="evenodd" clip-rule="evenodd" d="M5.72961 3.36796C5.94062 3.01153 6.40063 2.89363 6.75706 3.10464L6.375 3.75003C6.75706 3.10464 6.75693 3.10456 6.75706 3.10464L6.76241 3.10782L6.77526 3.11549L6.82247 3.14393C6.86318 3.16859 6.92199 3.2045 6.99631 3.25066C7.14489 3.34295 7.35584 3.47645 7.60844 3.64317C8.11238 3.97577 8.78805 4.44448 9.46708 4.98499C10.1417 5.52199 10.8426 6.14788 11.3816 6.79687C11.8969 7.4173 12.375 8.1883 12.375 9.00003C12.375 9.81163 11.8969 10.5826 11.3816 11.2029C10.8426 11.8518 10.1417 12.4777 9.46711 13.0148C8.78809 13.5553 8.11243 14.0241 7.60849 14.3568C7.3559 14.5235 7.14495 14.657 6.99637 14.7493C6.92205 14.7955 6.86324 14.8314 6.82253 14.8561L6.77532 14.8845L6.76248 14.8922L6.75775 14.895C6.75762 14.8951 6.75713 14.8954 6.375 14.25L6.75775 14.895C6.40134 15.1061 5.9407 14.9886 5.72965 14.6322C5.51862 14.2758 5.63642 13.8158 5.99276 13.6047C5.99279 13.6047 5.99272 13.6048 5.99276 13.6047L5.99512 13.6033L6.00479 13.5976L6.04538 13.5731C6.08157 13.5512 6.13556 13.5182 6.20479 13.4752C6.34332 13.3891 6.54253 13.2631 6.78212 13.1049C7.26256 12.7878 7.8994 12.3455 8.53288 11.8412C9.17076 11.3334 9.78238 10.7807 10.2277 10.2445C10.6969 9.6797 10.875 9.25906 10.875 9.00003C10.875 8.74077 10.6968 8.32001 10.2277 7.75526C9.78238 7.21906 9.17078 6.66632 8.53291 6.15858C7.89944 5.65434 7.26261 5.21217 6.78218 4.89508C6.54259 4.73695 6.34338 4.61091 6.20485 4.52486C6.13562 4.48186 6.08163 4.4489 6.04545 4.42699L6.00486 4.40253L5.99519 4.39676L5.99312 4.39553C5.99307 4.3955 5.99316 4.39556 5.99312 4.39553M5.72961 3.36796C5.51862 3.72436 5.63678 4.18448 5.99312 4.39553Z" fill="#3D3D3D"/>
</svg>
