<svg width="19" height="18" viewBox="0 0 19 18" fill="none" xmlns="http://www.w3.org/2000/svg">
<path d="M18.333 5.80134L17.3894 11.7778C17.2178 12.9562 16.2742 13.7138 15.0732 13.7138H6.83791C5.72271 13.7138 4.6933 12.872 4.52173 11.7778L3.49232 4.79124L3.23497 2.85521C3.14918 2.35016 2.72026 2.01346 2.11977 2.01346H1.51928C1.17615 2.01346 0.833008 1.67676 0.833008 1.34006C0.833008 1.00336 1.17615 0.666656 1.51928 0.666656H2.11977C3.32075 0.666656 4.35016 1.50841 4.43595 2.68686L4.60752 4.03366H16.7889C17.2178 4.03366 17.6467 4.20201 17.9041 4.53871C18.2472 4.87541 18.333 5.38046 18.333 5.80134Z" fill="#D9D9D9"/>
<path d="M15.2448 17.3333C15.7185 17.3333 16.1026 16.9565 16.1026 16.4916C16.1026 16.0267 15.7185 15.6498 15.2448 15.6498C14.771 15.6498 14.3869 16.0267 14.3869 16.4916C14.3869 16.9565 14.771 17.3333 15.2448 17.3333Z" fill="#D9D9D9"/>
<path d="M6.66634 17.3333C7.14012 17.3333 7.52418 16.9565 7.52418 16.4916C7.52418 16.0267 7.14012 15.6498 6.66634 15.6498C6.19257 15.6498 5.8085 16.0267 5.8085 16.4916C5.8085 16.9565 6.19257 17.3333 6.66634 17.3333Z" fill="#D9D9D9"/>
</svg>
