<svg width="22" height="22" viewBox="0 0 22 22" fill="none" xmlns="http://www.w3.org/2000/svg">
<path fill-rule="evenodd" clip-rule="evenodd" d="M3.53125 16.3926C3.53125 15.9784 3.86704 15.6426 4.28125 15.6426H10.2144C10.6286 15.6426 10.9644 15.9784 10.9644 16.3926C10.9644 16.8068 10.6286 17.1426 10.2144 17.1426H4.28125C3.86704 17.1426 3.53125 16.8068 3.53125 16.3926Z" fill="white"/>
<path fill-rule="evenodd" clip-rule="evenodd" d="M13.9532 13.9137C14.5655 13.3015 15.4556 13.1484 16.4325 13.1484C17.4094 13.1484 18.2995 13.3015 18.9118 13.9137C19.5241 14.5259 19.6774 15.416 19.6774 16.3934C19.6774 17.3708 19.5241 18.261 18.9118 18.8732C18.2995 19.4853 17.4094 19.6384 16.4325 19.6384C15.4556 19.6384 14.5655 19.4853 13.9532 18.8732C13.3408 18.261 13.1875 17.3708 13.1875 16.3934C13.1875 15.416 13.3408 14.5259 13.9532 13.9137ZM15.0137 14.9745C14.8463 15.1418 14.6875 15.4992 14.6875 16.3934C14.6875 17.2876 14.8463 17.645 15.0137 17.8124C15.1812 17.9798 15.5386 18.1384 16.4325 18.1384C17.3264 18.1384 17.6838 17.9798 17.8513 17.8124C18.0187 17.645 18.1774 17.2876 18.1774 16.3934C18.1774 15.4992 18.0187 15.1418 17.8513 14.9745C17.6838 14.807 17.3264 14.6484 16.4325 14.6484C15.5386 14.6484 15.1812 14.807 15.0137 14.9745Z" fill="white"/>
<path fill-rule="evenodd" clip-rule="evenodd" d="M12.2451 6.77802C12.2451 6.3638 12.5809 6.02802 12.9951 6.02802H18.9274C19.3417 6.02802 19.6774 6.3638 19.6774 6.77802C19.6774 7.19223 19.3417 7.52802 18.9274 7.52802H12.9951C12.5809 7.52802 12.2451 7.19223 12.2451 6.77802Z" fill="white"/>
<path fill-rule="evenodd" clip-rule="evenodd" d="M4.29702 4.29733C4.90939 3.68512 5.79959 3.5318 6.77704 3.5318C7.75415 3.5318 8.64416 3.68514 9.25642 4.2974C9.86867 4.90965 10.022 5.79966 10.022 6.77677C10.022 7.75419 9.86871 8.64432 9.25635 9.25653C8.64403 9.86868 7.75395 10.0217 6.77704 10.0217C5.79979 10.0217 4.90953 9.86871 4.29709 9.2566C3.68455 8.64438 3.53125 7.75419 3.53125 6.77677C3.53125 5.79967 3.68459 4.9096 4.29702 4.29733ZM5.35754 5.35813C5.18999 5.52564 5.03125 5.88306 5.03125 6.77677C5.03125 7.671 5.19003 8.0283 5.35747 8.19566C5.52503 8.36312 5.88265 8.52175 6.77704 8.52175C7.67096 8.52175 8.02836 8.36315 8.19583 8.19573C8.36325 8.02835 8.52202 7.67099 8.52202 6.77677C8.52202 5.88306 8.36328 5.52559 8.19576 5.35806C8.02823 5.19053 7.67075 5.0318 6.77704 5.0318C5.88285 5.0318 5.52516 5.19056 5.35754 5.35813Z" fill="white"/>
</svg>
