<svg width="20" height="20" viewBox="0 0 20 20" fill="none" xmlns="http://www.w3.org/2000/svg">
<path fill-rule="evenodd" clip-rule="evenodd" d="M5.033 6.62257C3.73884 7.71667 3.0415 9.04624 3.0415 10.1165C3.0415 11.3829 4.02688 13.0122 5.76065 14.1473C6.1072 14.3742 6.2042 14.8391 5.97732 15.1856C5.75043 15.5322 5.28557 15.6292 4.93902 15.4023C2.95613 14.1041 1.5415 12.0667 1.5415 10.1165C1.5415 8.4534 2.56917 6.74131 4.06459 5.47707C5.57959 4.19628 7.67449 3.28316 9.99984 3.28316C11.902 3.28316 13.6618 3.89249 15.0742 4.83412C15.4188 5.06388 15.512 5.52954 15.2822 5.87418C15.0524 6.21883 14.5868 6.31196 14.2421 6.0822C13.0546 5.29049 11.581 4.78316 9.99984 4.78316C8.06685 4.78316 6.30758 5.54504 5.033 6.62257Z" fill="#727272"/>
<path fill-rule="evenodd" clip-rule="evenodd" d="M16.0768 6.58621C16.402 6.32975 16.8736 6.38551 17.1301 6.71078C17.942 7.74048 18.4661 8.94116 18.4661 10.1168C18.4661 11.7806 17.4357 13.4927 15.9385 14.7566C14.4215 16.0371 12.3247 16.9502 9.99947 16.9502C9.1702 16.9502 8.36211 16.8318 7.60775 16.623C7.20854 16.5125 6.97449 16.0993 7.08498 15.7001C7.19547 15.3009 7.60866 15.0668 8.00787 15.1773C8.6385 15.3519 9.31208 15.4502 9.99947 15.4502C11.9326 15.4502 13.6941 14.6882 14.9709 13.6104C16.2674 12.5159 16.9661 11.1864 16.9661 10.1168C16.9661 9.37582 16.6253 8.49317 15.9522 7.63953C15.6957 7.31427 15.7515 6.84268 16.0768 6.58621Z" fill="#727272"/>
<path fill-rule="evenodd" clip-rule="evenodd" d="M11.3319 8.77782C10.9778 8.4238 10.4976 8.22547 9.99732 8.22666L9.99683 8.22666C8.95615 8.22845 8.11482 9.07354 8.1172 10.1133L8.1172 10.1177C8.11542 10.6142 8.31292 11.0903 8.66567 11.4395C8.96005 11.7309 8.96245 12.2058 8.67105 12.5001C8.37964 12.7945 7.90478 12.7969 7.6104 12.5055C6.97201 11.8736 6.61457 11.0122 6.6172 10.1145C6.61411 8.24708 8.12539 6.73014 9.99375 6.72666M9.99425 6.72666C10.8938 6.72465 11.7567 7.08131 12.3925 7.71716C12.6854 8.01006 12.6854 8.48493 12.3925 8.77782C12.0996 9.07072 11.6248 9.07072 11.3319 8.77782" fill="#727272"/>
<path fill-rule="evenodd" clip-rule="evenodd" d="M12.7245 9.84458C13.1321 9.9184 13.4027 10.3087 13.3289 10.7162C13.0782 12.1002 11.9955 13.1848 10.612 13.4386C10.2046 13.5133 9.81374 13.2436 9.739 12.8362C9.66427 12.4288 9.93396 12.038 10.3414 11.9632C11.1112 11.822 11.7135 11.2183 11.8529 10.4489C11.9267 10.0413 12.3169 9.77076 12.7245 9.84458Z" fill="#727272"/>
<path fill-rule="evenodd" clip-rule="evenodd" d="M17.1065 3.01125C17.3994 3.30414 17.3994 3.77902 17.1065 4.07191L3.96148 17.2169C3.66859 17.5098 3.19372 17.5098 2.90082 17.2169C2.60793 16.924 2.60793 16.4491 2.90082 16.1562L16.0458 3.01125C16.3387 2.71836 16.8136 2.71836 17.1065 3.01125Z" fill="#727272"/>
</svg>
