<svg width="20" height="20" viewBox="0 0 20 20" fill="none" xmlns="http://www.w3.org/2000/svg">
<path fill-rule="evenodd" clip-rule="evenodd" d="M14.0447 7.03563C14.3099 6.71755 14.7827 6.67458 15.1009 6.93969C15.4191 7.20483 15.4621 7.67775 15.197 7.99598L14.6635 7.55148C15.197 7.99599 15.1971 7.99586 15.197 7.99598L15.1958 7.99738L15.1936 7.99995L15.1864 8.00851L15.1607 8.03884C15.1386 8.06474 15.1067 8.10174 15.0659 8.14827C14.9844 8.24128 14.8669 8.37267 14.7201 8.52969C14.4275 8.84278 14.014 9.26248 13.5338 9.68452C13.0562 10.1042 12.4964 10.5406 11.9108 10.8757C11.3372 11.204 10.6682 11.4764 9.98918 11.4764C9.31079 11.4764 8.64034 11.2042 8.06476 10.8765C7.47693 10.5418 6.91368 10.1059 6.43255 9.6865C5.94874 9.26475 5.53165 8.84531 5.23624 8.5324C5.08808 8.37547 4.96942 8.24417 4.88708 8.15123C4.84588 8.10474 4.8137 8.06777 4.79139 8.04191L4.7654 8.01163L4.75814 8.00309L4.75598 8.00053L4.75527 7.99969C4.75517 7.99957 4.75481 7.99915 5.32836 7.51589L4.75527 7.99969C4.48837 7.68293 4.52834 7.20923 4.8451 6.94234C5.16187 6.67544 5.63502 6.71587 5.90191 7.03263M14.0447 7.03563L14.044 7.03648L14.0396 7.04169L14.0198 7.06504C14.0017 7.08618 13.9742 7.11815 13.938 7.15941C13.8657 7.24198 13.7589 7.36141 13.6243 7.50537C13.3543 7.79426 12.9767 8.17719 12.5436 8.55778C12.1078 8.94072 11.632 9.30698 11.1658 9.57383C10.6875 9.84754 10.2884 9.97641 9.98918 9.97641C9.68971 9.97641 9.28863 9.84727 8.80695 9.57301C8.33753 9.30573 7.85781 8.93902 7.4182 8.5558C6.98127 8.17492 6.59985 7.79173 6.32694 7.50267C6.19094 7.35861 6.08298 7.23909 6.00975 7.15645C5.97316 7.11515 5.94532 7.08315 5.92705 7.06198L5.90696 7.03857L5.90191 7.03263M14.0447 7.03563C14.0447 7.03557 14.0446 7.03568 14.0447 7.03563Z" fill="#46A358"/>
<path fill-rule="evenodd" clip-rule="evenodd" d="M4.29818 4.58026C3.29008 5.54524 2.79346 7.17248 2.79346 9.97404C2.79346 12.7751 3.29007 14.4024 4.29821 15.3675C5.31603 16.3419 7.03978 16.8214 9.97997 16.8214C12.9202 16.8214 14.6439 16.3419 15.6617 15.3675C16.6699 14.4024 17.1665 12.7751 17.1665 9.97404C17.1665 7.17248 16.6699 5.54524 15.6617 4.58026C14.6439 3.60599 12.9202 3.12671 9.97997 3.12671C7.03971 3.12671 5.31599 3.60599 4.29818 4.58026ZM3.26095 3.49668C4.72331 2.09688 6.96784 1.62671 9.97997 1.62671C12.9921 1.62671 15.2366 2.09688 16.699 3.49668C18.171 4.90576 18.6665 7.07718 18.6665 9.97404C18.6665 12.8705 18.171 15.0419 16.699 16.4511C15.2367 17.851 12.9922 18.3214 9.97997 18.3214C6.96777 18.3214 4.72326 17.851 3.26093 16.4511C1.78891 15.0419 1.29346 12.8705 1.29346 9.97404C1.29346 7.07718 1.7889 4.90576 3.26095 3.49668Z" fill="#46A358"/>
</svg>
