<svg width="24" height="24" viewBox="0 0 24 24" fill="none" xmlns="http://www.w3.org/2000/svg">
<path fill-rule="evenodd" clip-rule="evenodd" d="M17.2845 10.2989C16.2835 10.2989 15.4717 11.1107 15.4717 12.1117C15.4717 13.1139 16.2837 13.9255 17.2845 13.9255H21.1712C21.5854 13.9255 21.9212 14.2613 21.9212 14.6755C21.9212 15.0897 21.5854 15.4255 21.1712 15.4255H17.2845C15.4549 15.4255 13.9717 13.9419 13.9717 12.1117C13.9717 10.2823 15.4551 8.79886 17.2845 8.79886H21.1407C21.5549 8.79886 21.8907 9.13465 21.8907 9.54886C21.8907 9.96307 21.5549 10.2989 21.1407 10.2989H17.2845Z" fill="#46A358"/>
<path fill-rule="evenodd" clip-rule="evenodd" d="M16.6748 12.0531C16.6748 11.6389 17.0106 11.3031 17.4248 11.3031H17.7219C18.1362 11.3031 18.4719 11.6389 18.4719 12.0531C18.4719 12.4674 18.1362 12.8031 17.7219 12.8031H17.4248C17.0106 12.8031 16.6748 12.4674 16.6748 12.0531Z" fill="#46A358"/>
<path fill-rule="evenodd" clip-rule="evenodd" d="M6.85645 8.14371C6.85645 7.7295 7.19223 7.39371 7.60645 7.39371H11.6664C12.0807 7.39371 12.4164 7.7295 12.4164 8.14371C12.4164 8.55793 12.0807 8.89371 11.6664 8.89371H7.60645C7.19223 8.89371 6.85645 8.55793 6.85645 8.14371Z" fill="#46A358"/>
<path fill-rule="evenodd" clip-rule="evenodd" d="M5.25549 6.13431C4.0432 7.24729 3.46387 9.10477 3.46387 12.2531C3.46387 15.401 4.04319 17.2585 5.25551 18.3716C6.4871 19.5024 8.55785 20.0422 12.0148 20.0422C15.4713 20.0422 17.5418 19.5024 18.7733 18.3717C19.9855 17.2585 20.5648 15.401 20.5648 12.2531C20.5648 9.10477 19.9855 7.24727 18.7733 6.13429C17.5418 5.00363 15.4714 4.4641 12.0148 4.4641C8.55779 4.4641 6.48706 5.00363 5.25549 6.13431ZM4.24105 5.02936C5.91591 3.4917 8.49566 2.9641 12.0148 2.9641C15.5335 2.9641 18.113 3.49171 19.7878 5.02938C21.4818 6.58473 22.0648 8.99675 22.0648 12.2531C22.0648 15.5091 21.4818 17.9211 19.7878 19.4765C18.1131 21.0143 15.5336 21.5422 12.0148 21.5422C8.49559 21.5422 5.91587 21.0143 4.24103 19.4765C2.54693 17.9211 1.96387 15.5091 1.96387 12.2531C1.96387 8.99675 2.54691 6.58471 4.24105 5.02936Z" fill="#46A358"/>
</svg>
